# xmcd CD database file
#
# Track frame offsets:
#	150
#	29578
#	59775
#	86530
#	112210
#	132558
#	175045
#	177548
#	220538
#
# Disc length: 3146 seconds
#
# Revision: 0
# Processed by: cddbd v1.5.2PL0 Copyright (c) Steve Scherf et al.
# Submitted via: CDex 1.51
#
DISCID=880c4809
DTITLE=Garland, Red - Complete 'At the Prelude'
DYEAR=1900
DGENRE=Jazz
TTITLE0=M-Squad Theme
TTITLE1=There Will Never Be Another You
TTITLE2=Let Me See
TTITLE3=We Kiss in a Shadow
TTITLE4=Blue in the Closet
TTITLE5=Satin Doll
TTITLE6=Lil' Darlin' [false start]
TTITLE7=Lil' Darlin'
TTITLE8=One o'Clock Jump
EXTD=
EXTT0=
EXTT1=
EXTT2=
EXTT3=
EXTT4=
EXTT5=
EXTT6=
EXTT7=
EXTT8=
PLAYORDER=
